<mxfile host="app.diagrams.net" agent="Mozilla/5.0 (X11; Ubuntu; Linux x86_64; rv:136.0) Gecko/20100101 Firefox/136.0" version="26.1.3">
  <diagram name="Page-1" id="ZHO00dDbJON3AqriOa_N">
    <mxGraphModel dx="1364" dy="758" grid="1" gridSize="10" guides="1" tooltips="1" connect="1" arrows="1" fold="1" page="1" pageScale="1" pageWidth="850" pageHeight="1100" math="0" shadow="0">
      <root>
        <mxCell id="0" />
        <mxCell id="1" parent="0" />
        <mxCell id="SFCvmzTtNrTYk7coOpqa-1" value="" style="ellipse;whiteSpace=wrap;html=1;aspect=fixed;" vertex="1" parent="1">
          <mxGeometry x="230" y="100" width="510" height="510" as="geometry" />
        </mxCell>
        <mxCell id="SFCvmzTtNrTYk7coOpqa-2" value="Server 0" style="rounded=1;whiteSpace=wrap;html=1;fillColor=#e1d5e7;strokeColor=#9673a6;" vertex="1" parent="1">
          <mxGeometry x="20" y="140" width="120" height="60" as="geometry" />
        </mxCell>
        <mxCell id="SFCvmzTtNrTYk7coOpqa-3" value="Server 1" style="rounded=1;whiteSpace=wrap;html=1;fillColor=#dae8fc;strokeColor=#6c8ebf;" vertex="1" parent="1">
          <mxGeometry x="20" y="240" width="120" height="60" as="geometry" />
        </mxCell>
        <mxCell id="SFCvmzTtNrTYk7coOpqa-4" value="Server 2" style="rounded=1;whiteSpace=wrap;html=1;fillColor=#f8cecc;strokeColor=#b85450;" vertex="1" parent="1">
          <mxGeometry x="20" y="340" width="120" height="60" as="geometry" />
        </mxCell>
        <mxCell id="SFCvmzTtNrTYk7coOpqa-5" value="Server 3" style="rounded=1;whiteSpace=wrap;html=1;fillColor=#ffe6cc;strokeColor=#d79b00;" vertex="1" parent="1">
          <mxGeometry x="20" y="440" width="120" height="60" as="geometry" />
        </mxCell>
        <mxCell id="SFCvmzTtNrTYk7coOpqa-6" value="S3" style="ellipse;whiteSpace=wrap;html=1;aspect=fixed;fillColor=#ffe6cc;strokeColor=#d79b00;" vertex="1" parent="1">
          <mxGeometry x="290" y="150" width="40" height="40" as="geometry" />
        </mxCell>
        <mxCell id="SFCvmzTtNrTYk7coOpqa-7" value="S0_0" style="ellipse;whiteSpace=wrap;html=1;aspect=fixed;fillColor=#e1d5e7;strokeColor=#9673a6;" vertex="1" parent="1">
          <mxGeometry x="640" y="150" width="40" height="40" as="geometry" />
        </mxCell>
        <mxCell id="SFCvmzTtNrTYk7coOpqa-8" value="S1_0" style="ellipse;whiteSpace=wrap;html=1;aspect=fixed;fillColor=#dae8fc;strokeColor=#6c8ebf;" vertex="1" parent="1">
          <mxGeometry x="710" y="310" width="40" height="40" as="geometry" />
        </mxCell>
        <mxCell id="SFCvmzTtNrTYk7coOpqa-9" value="S2" style="ellipse;whiteSpace=wrap;html=1;aspect=fixed;fillColor=#f8cecc;strokeColor=#b85450;" vertex="1" parent="1">
          <mxGeometry x="290" y="520" width="40" height="40" as="geometry" />
        </mxCell>
        <mxCell id="SFCvmzTtNrTYk7coOpqa-10" style="edgeStyle=orthogonalEdgeStyle;rounded=0;orthogonalLoop=1;jettySize=auto;html=1;exitX=0.5;exitY=0;exitDx=0;exitDy=0;entryX=0.5;entryY=0;entryDx=0;entryDy=0;dashed=1;" edge="1" parent="1" source="SFCvmzTtNrTYk7coOpqa-11" target="SFCvmzTtNrTYk7coOpqa-21">
          <mxGeometry relative="1" as="geometry" />
        </mxCell>
        <mxCell id="SFCvmzTtNrTYk7coOpqa-11" value="k0" style="ellipse;whiteSpace=wrap;html=1;aspect=fixed;fillColor=#f5f5f5;strokeColor=#666666;fontColor=#333333;" vertex="1" parent="1">
          <mxGeometry x="380" y="100" width="40" height="40" as="geometry" />
        </mxCell>
        <mxCell id="SFCvmzTtNrTYk7coOpqa-12" style="edgeStyle=orthogonalEdgeStyle;rounded=0;orthogonalLoop=1;jettySize=auto;html=1;exitX=1;exitY=0.5;exitDx=0;exitDy=0;entryX=0.5;entryY=1;entryDx=0;entryDy=0;dashed=1;" edge="1" parent="1" source="SFCvmzTtNrTYk7coOpqa-13" target="SFCvmzTtNrTYk7coOpqa-18">
          <mxGeometry relative="1" as="geometry" />
        </mxCell>
        <mxCell id="SFCvmzTtNrTYk7coOpqa-13" value="k1" style="ellipse;whiteSpace=wrap;html=1;aspect=fixed;fillColor=#f5f5f5;strokeColor=#666666;fontColor=#333333;" vertex="1" parent="1">
          <mxGeometry x="680" y="470" width="40" height="40" as="geometry" />
        </mxCell>
        <mxCell id="SFCvmzTtNrTYk7coOpqa-14" style="edgeStyle=orthogonalEdgeStyle;rounded=0;orthogonalLoop=1;jettySize=auto;html=1;exitX=0.5;exitY=1;exitDx=0;exitDy=0;entryX=0.5;entryY=1;entryDx=0;entryDy=0;dashed=1;" edge="1" parent="1" source="SFCvmzTtNrTYk7coOpqa-15" target="SFCvmzTtNrTYk7coOpqa-9">
          <mxGeometry relative="1" as="geometry" />
        </mxCell>
        <mxCell id="SFCvmzTtNrTYk7coOpqa-15" value="k2" style="ellipse;whiteSpace=wrap;html=1;aspect=fixed;fillColor=#f5f5f5;strokeColor=#666666;fontColor=#333333;" vertex="1" parent="1">
          <mxGeometry x="405" y="580" width="40" height="40" as="geometry" />
        </mxCell>
        <mxCell id="SFCvmzTtNrTYk7coOpqa-16" style="edgeStyle=orthogonalEdgeStyle;rounded=0;orthogonalLoop=1;jettySize=auto;html=1;exitX=0;exitY=0.5;exitDx=0;exitDy=0;entryX=0;entryY=0.5;entryDx=0;entryDy=0;dashed=1;" edge="1" parent="1" source="SFCvmzTtNrTYk7coOpqa-17" target="SFCvmzTtNrTYk7coOpqa-6">
          <mxGeometry relative="1" as="geometry" />
        </mxCell>
        <mxCell id="SFCvmzTtNrTYk7coOpqa-17" value="k3" style="ellipse;whiteSpace=wrap;html=1;aspect=fixed;fillColor=#f5f5f5;strokeColor=#666666;fontColor=#333333;" vertex="1" parent="1">
          <mxGeometry x="220" y="280" width="40" height="40" as="geometry" />
        </mxCell>
        <mxCell id="SFCvmzTtNrTYk7coOpqa-18" value="S0_1" style="ellipse;whiteSpace=wrap;html=1;aspect=fixed;fillColor=#e1d5e7;strokeColor=#9673a6;" vertex="1" parent="1">
          <mxGeometry x="560" y="570" width="40" height="40" as="geometry" />
        </mxCell>
        <mxCell id="SFCvmzTtNrTYk7coOpqa-19" value="S0_2" style="ellipse;whiteSpace=wrap;html=1;aspect=fixed;fillColor=#e1d5e7;strokeColor=#9673a6;" vertex="1" parent="1">
          <mxGeometry x="210" y="350" width="40" height="40" as="geometry" />
        </mxCell>
        <mxCell id="SFCvmzTtNrTYk7coOpqa-20" value="S1_1" style="ellipse;whiteSpace=wrap;html=1;aspect=fixed;fillColor=#dae8fc;strokeColor=#6c8ebf;" vertex="1" parent="1">
          <mxGeometry x="230" y="440" width="40" height="40" as="geometry" />
        </mxCell>
        <mxCell id="SFCvmzTtNrTYk7coOpqa-21" value="S1_2" style="ellipse;whiteSpace=wrap;html=1;aspect=fixed;fillColor=#dae8fc;strokeColor=#6c8ebf;" vertex="1" parent="1">
          <mxGeometry x="520" y="90" width="40" height="40" as="geometry" />
        </mxCell>
      </root>
    </mxGraphModel>
  </diagram>
</mxfile>
